<?xml version="1.0" encoding="UTF-8"?>
<svg width="516px" height="232px" viewBox="0 0 516 232" version="1.1" xmlns="http://www.w3.org/2000/svg" xmlns:xlink="http://www.w3.org/1999/xlink">
    <!-- Generator: Sketch 61 (89581) - https://sketch.com -->
    <title>Combined Shape</title>
    <desc>Created with Sketch.</desc>
    <g id="Page-1" stroke="none" stroke-width="1" fill="none" fill-rule="evenodd">
        <g id="Artboard" transform="translate(-242.000000, -384.000000)" fill="#000000">
            <path d="M547.305606,398.318414 L744.232656,552.174457 C759.682481,564.245183 762.421782,586.554997 750.351056,602.004821 C738.28033,617.454646 715.970516,620.193946 700.520692,608.123221 L540.444748,483.057063 L541.037269,483.763051 C514.072236,463.224925 488.242438,461.949943 463.547876,479.938106 L299.479308,608.123221 C284.029484,620.193946 261.71967,617.454646 249.648944,602.004821 C237.698926,586.709495 240.264214,564.690693 255.307664,552.539634 L255.767344,552.174457 L448.044338,401.951194 C468.196321,387.731295 510.29508,372.509075 547.305606,398.318414 Z" id="Combined-Shape" transform="translate(500.000000, 500.000000) scale(1, -1) translate(-500.000000, -500.000000) "></path>
        </g>
    </g>
</svg>