<?xml version="1.0" encoding="UTF-8"?>
<svg width="724px" height="746px" viewBox="0 0 724 746" version="1.1" xmlns="http://www.w3.org/2000/svg" xmlns:xlink="http://www.w3.org/1999/xlink">
    <!-- Generator: Sketch 55.2 (78181) - https://sketchapp.com -->
    <title>Combined Shape</title>
    <desc>Created with Sketch.</desc>
    <g id="Page-1" stroke="none" stroke-width="1" fill="none" fill-rule="evenodd">
        <g id="Artboard" transform="translate(-138.000000, -147.000000)" fill="#000000">
            <g id="Group" transform="translate(138.000000, 147.000000)">
                <path d="M316.049209,0.943912038 L407.950791,0.943912038 C502.048615,0.943912038 547.945031,13.0576543 590.478364,35.8047299 C633.011698,58.5518055 666.392107,91.9322144 689.139182,134.465548 C711.886258,176.998881 724,222.895297 724,316.993121 L724,429.894703 C724,523.992527 711.886258,569.888943 689.139182,612.422276 C666.392107,654.95561 633.011698,688.336019 590.478364,711.083094 C547.945031,733.83017 502.048615,745.943912 407.950791,745.943912 L316.049209,745.943912 C221.951385,745.943912 176.054969,733.83017 133.521636,711.083094 C90.9883024,688.336019 57.6078934,654.95561 34.8608178,612.422276 C12.1137423,569.888943 4.78207613e-15,523.992527 -6.74158372e-15,429.894703 L6.74158372e-15,316.993121 C-4.78207613e-15,222.895297 12.1137423,176.998881 34.8608178,134.465548 C57.6078934,91.9322144 90.9883024,58.5518055 133.521636,35.8047299 C176.054969,13.0576543 221.951385,0.943912038 316.049209,0.943912038 Z M237.122749,314.466325 C262.329193,314.466325 282.763054,294.032464 282.763054,268.82602 C282.763054,243.619576 262.329193,223.185716 237.122749,223.185716 C211.916305,223.185716 191.482445,243.619576 191.482445,268.82602 C191.482445,294.032464 211.916305,314.466325 237.122749,314.466325 Z M486.877251,314.466325 C512.083695,314.466325 532.517555,294.032464 532.517555,268.82602 C532.517555,243.619576 512.083695,223.185716 486.877251,223.185716 C461.670807,223.185716 441.236946,243.619576 441.236946,268.82602 C441.236946,294.032464 461.670807,314.466325 486.877251,314.466325 Z M186.769553,469.216859 C218.266892,530.039772 278.52165,560.314209 362,560.314209 C445.47835,560.314209 505.733108,530.039772 537.230447,469.216859 C545.484438,453.277995 539.254618,433.665812 523.315754,425.411821 C507.376891,417.15783 487.764707,423.38765 479.510716,439.326513 C460.229083,476.560297 422.903454,495.314209 362,495.314209 C301.096546,495.314209 263.770917,476.560297 244.489284,439.326513 C236.235293,423.38765 216.623109,417.15783 200.684246,425.411821 C184.745382,433.665812 178.515562,453.277995 186.769553,469.216859 Z" id="Combined-Shape"></path>
            </g>
        </g>
    </g>
</svg>