<?xml version="1.0" encoding="UTF-8"?>
<svg width="510px" height="637px" viewBox="0 0 510 637" version="1.1" xmlns="http://www.w3.org/2000/svg" xmlns:xlink="http://www.w3.org/1999/xlink">
    <!-- Generator: Sketch 55.2 (78181) - https://sketchapp.com -->
    <title>Combined Shape</title>
    <desc>Created with Sketch.</desc>
    <g id="Page-1" stroke="none" stroke-width="1" fill="none" fill-rule="evenodd" stroke-linecap="round" stroke-linejoin="round">
        <g id="Artboard" transform="translate(-196.000000, -146.000000)" fill="#000000" stroke="#000000" stroke-width="53">
            <path d="M381.921595,568.009254 C381.921595,584.314255 382.197916,282.685448 382.028261,281.508568 C382.148261,281.508568 382.017203,210.459846 447.478299,198.53937 C512.801503,189.46573 502.122401,190.46637 569.102955,182 C648.182453,172.004319 652.453011,160.270179 652.453011,213.085059 C652.453011,256.588841 617.802084,281.42265 500,306.684044 C395.262708,330.089949 381.921595,427.359841 381.921595,568.009254 Z M678.661261,621.560231 C678.661261,621.560231 683.71317,700.765088 593.257865,712.266964 C531.391974,720.133543 523.299524,674.529451 523.299524,674.529451 C523.299524,674.529451 489.906921,590.346631 625.081213,590.346631 C652.291372,590.346631 678.458261,572.120266 678.661261,529.733266 C678.901261,479.640266 678.661261,355.919451 678.661261,346.287451 L678.661261,621.560231 Z M381.921595,664.571149 C381.921595,664.571149 386.973503,743.776007 296.518198,755.277883 C234.652307,763.144462 226.559857,717.540369 226.559857,717.540369 C226.559857,717.540369 193.167254,633.35755 328.341547,633.35755 C355.551705,633.35755 381.921595,609.761286 381.921595,568.009254 C381.921595,598.623039 381.921595,630.810337 381.921595,664.571149 Z" id="Combined-Shape"></path>
        </g>
    </g>
</svg>