<?xml version="1.0" encoding="UTF-8"?>
<svg width="1000px" height="1000px" viewBox="0 0 1000 1000" version="1.1" xmlns="http://www.w3.org/2000/svg" xmlns:xlink="http://www.w3.org/1999/xlink">
    <!-- Generator: Sketch 55.2 (78181) - https://sketchapp.com -->
    <title>Artboard</title>
    <desc>Created with Sketch.</desc>
    <g id="Artboard" stroke="none" stroke-width="1" fill="none" fill-rule="evenodd">
        <path d="M935.373724,349.621094 C909.284027,347.003346 821.733158,345.297144 672.721117,344.502487 C644.873011,342.932115 631.027961,321.8908 621.231504,301.592397 L541.0192,56.7641305 C525.968305,17.5076145 472.534092,17.5076145 457.483197,56.7641305 L378.023507,302.978426 C370.831399,326.956738 348.487216,342.932115 326.533893,344.502487 L63.8812868,349.621094 C24.7467414,353.547716 8.94323205,404.581325 38.2937946,432.060748 L243.148967,599.567967 C260.625415,616.915514 269.462739,633.418968 264.378783,659.752144 L191.06752,914.137084 C182.036151,954.179479 223.428539,987.155895 258.047399,965.956572 L470.1224,819.223164 C489.633539,805.805012 509.17517,806.236067 529.890768,817.837135 L741.961611,965.962116 C776.579086,987.161439 817.971474,954.970902 808.940105,914.142628 L736.378684,659.752144 C728.992532,631.700291 738.147258,613.925848 757.608499,599.567967 L962.466444,432.06352 C991.064393,404.581325 974.508269,353.547716 935.373724,349.621094 Z" id="Forma_1-path" fill="#000000"></path>
    </g>
</svg>