<?xml version="1.0" encoding="UTF-8"?>
<svg width="600px" height="584px" viewBox="0 0 600 584" version="1.1" xmlns="http://www.w3.org/2000/svg" xmlns:xlink="http://www.w3.org/1999/xlink">
    <!-- Generator: Sketch 55.2 (78181) - https://sketchapp.com -->
    <title>Group</title>
    <desc>Created with Sketch.</desc>
    <g id="Page-1" stroke="none" stroke-width="1" fill="none" fill-rule="evenodd">
        <g id="Artboard" transform="translate(-222.000000, -209.000000)" fill="#000000">
            <g id="Group" transform="translate(224.000000, 214.000000)">
                <path d="M471.401902,345.760133 C412.785514,471.271315 284.133631,543.880972 85.4462509,563.589104 C137.645955,511.053359 190.509877,471.542742 172.538512,422.189972 C154.567147,372.837202 29.6495192,348.92136 19.1831195,199.244871 C125.96334,273.98397 170.009059,295.337601 216.456145,256.400306 C262.903231,217.463011 211.575503,145.381647 252.984799,75.6228288 C273.159559,41.6360778 313.534701,21.1446107 347.315281,16.885641 C382.870347,12.4029485 425.175678,26.0918342 451.541169,61.7384148 C504.140364,145.308137 510.760609,239.982043 471.401902,345.760133 Z" id="Path-3" stroke="#000000" stroke-width="56" stroke-linecap="round" stroke-linejoin="round" transform="translate(257.926888, 289.826175) rotate(4.000000) translate(-257.926888, -289.826175) "></path>
                <path d="M485.206936,63.9492553 C502.308815,89.6887956 526.387475,75.8272496 545.834232,69.7669819 C565.280989,63.7067143 584.958321,58.9663169 590.723103,66.6280463 C596.487885,74.2897757 595.469635,89.7849846 574.299575,103.566323 C553.129515,117.347662 530.137342,165.063136 534.220579,194.040628 C538.303817,223.01812 468.105058,38.209715 485.206936,63.9492553 Z" id="Path-4" transform="translate(538.126352, 129.308040) rotate(4.000000) translate(-538.126352, -129.308040) "></path>
            </g>
        </g>
    </g>
</svg>