<?xml version="1.0" standalone="no"?>
<!DOCTYPE svg PUBLIC "-//W3C//DTD SVG 20010904//EN"
 "http://www.w3.org/TR/2001/REC-SVG-20010904/DTD/svg10.dtd">
<svg version="1.0" xmlns="http://www.w3.org/2000/svg"
 width="2000.000000pt" height="2000.000000pt" viewBox="0 0 2000.000000 2000.000000"
 preserveAspectRatio="xMidYMid meet">
<metadata>
Created by potrace 1.11, written by Peter Selinger 2001-2013
</metadata>
<g transform="translate(0.000000,2000.000000) scale(0.100000,-0.100000)"
fill="#000000" stroke="none">
<path d="M8385 19984 c-163 -29 -503 -95 -600 -117 l-100 -22 -3 -558 -2 -557
2320 0 2320 0 -2 557 -3 558 -55 12 c-131 30 -408 85 -570 113 l-175 30 -1525
-1 c-1260 -1 -1539 -4 -1605 -15z"/>
<path d="M6285 19408 c-439 -183 -729 -318 -1052 -491 l-173 -91 0 -1248 0
-1248 4950 0 4950 0 0 1243 0 1242 -183 97 c-327 174 -641 322 -974 459 l-143
58 0 -900 0 -899 -3650 0 -3650 0 0 900 c0 714 -3 900 -12 899 -7 0 -35 -10
-63 -21z"/>
<path d="M3535 17773 c-253 -211 -396 -343 -681 -627 -282 -283 -416 -427
-623 -676 l-113 -135 778 -3 c427 -1 779 -1 781 1 2 2 2 353 1 781 l-3 776
-140 -117z"/>
<path d="M16340 17100 l0 -770 771 0 c614 0 769 3 762 13 -13 22 -214 259
-332 392 -63 72 -241 256 -395 411 -155 154 -339 332 -411 395 -149 132 -383
329 -390 329 -3 0 -5 -346 -5 -770z"/>
<path d="M1130 14858 c-83 -151 -343 -682 -408 -834 -50 -115 -88 -208 -149
-361 -4 -10 180 -13 901 -13 l906 0 0 -3650 0 -3650 -905 0 c-498 0 -905 -2
-905 -4 0 -8 123 -303 186 -446 71 -162 287 -599 374 -758 l51 -92 1249 0
1250 0 0 4950 0 4950 -1250 0 -1249 0 -51 -92z"/>
<path d="M5060 10000 l0 -4950 4950 0 4950 0 0 4950 0 4950 -4950 0 -4950 0 0
-4950z m8600 0 l0 -3650 -3650 0 -3650 0 0 3650 0 3650 3650 0 3650 0 0 -3650z"/>
<path d="M7680 9990 l0 -2540 2320 0 2320 0 0 640 0 640 -1680 0 -1680 0 0
1260 0 1260 1680 0 1680 0 0 640 0 640 -2320 0 -2320 0 0 -2540z"/>
<path d="M16340 10000 l0 -4950 1240 0 1239 0 51 93 c87 158 303 595 374 757
63 143 186 438 186 446 0 2 -403 4 -895 4 l-895 0 0 3650 0 3650 896 0 c713 0
895 3 891 13 -61 153 -99 246 -149 361 -65 152 -325 683 -408 834 l-51 92
-1239 0 -1240 0 0 -4950z"/>
<path d="M205 12518 c-12 -33 -107 -460 -134 -603 -78 -412 -71 -224 -71
-1915 0 -1476 0 -1516 20 -1634 39 -231 82 -442 136 -675 30 -129 54 -236 54
-238 0 -2 191 -3 425 -3 l425 0 0 2540 0 2540 -425 0 c-331 0 -427 -3 -430
-12z"/>
<path d="M18960 9990 l0 -2540 415 0 c228 0 415 1 415 3 0 2 24 109 54 238 54
233 97 444 136 675 20 118 20 158 20 1635 l0 1514 -30 175 c-37 216 -88 464
-138 675 l-38 160 -417 3 -417 2 0 -2540z"/>
<path d="M1959 3873 c15 -29 259 -331 385 -477 336 -389 773 -820 1176 -1157
69 -58 131 -108 138 -112 9 -7 12 171 12 877 l0 886 -860 0 c-817 0 -860 -1
-851 -17z"/>
<path d="M5050 2535 l0 -1354 93 -51 c150 -83 681 -343 833 -408 115 -50 208
-88 362 -149 9 -4 12 201 12 1006 l0 1011 3650 0 3650 0 0 -1011 c0 -805 3
-1010 13 -1006 153 61 246 99 361 149 152 65 683 325 834 408 l92 51 0 1354 0
1355 -4950 0 -4950 0 0 -1355z"/>
<path d="M16330 3004 c0 -706 3 -884 13 -877 6 4 68 54 137 112 403 337 840
768 1176 1157 126 146 370 448 385 477 9 16 -34 17 -851 17 l-860 0 0 -886z"/>
<path d="M7670 816 c0 -615 1 -655 18 -660 35 -11 291 -65 422 -90 335 -63
365 -66 609 -66 l231 0 0 95 0 95 1680 0 1680 0 0 640 0 640 -2320 0 -2320 0
0 -654z"/>
</g>
</svg>
